{"accessors":[{"bufferView":0,"componentType":5123,"count":2280,"max":[438],"min":[0],"type":"SCALAR"},{"bufferView":1,"componentType":5126,"count":439,"max":[1.0,1.0,1.0000001192092896],"min":[-1.000000238418579,-1.0,-1.0000004768371582],"type":"VEC3"},{"bufferView":2,"componentType":5126,"count":439,"max":[1.0,1.0,1.0],"min":[-1.0,-1.0,-0.9999999403953552],"type":"VEC3"},{"bufferView":3,"componentType":5126,"count":439,"max":[1.0000001192092896,1.0],"min":[0.0,0.0],"type":"VEC2"},{"bufferView":4,"componentType":5123,"count":6204,"max":[1172],"min":[0],"type":"SCALAR"},{"bufferView":5,"componentType":5126,"count":1173,"max":[0.883692741394043,3.4449102878570557,0.8836928009986877],"min":[-0.8836928009986877,-0.625083863735199,-0.8836928009986877],"type":"VEC3"},{"bufferView":6,"componentType":5126,"count":1173,"max":[1.0,1.0,1.0],"min":[-1.0,-1.0,-1.0],"type":"VEC3"},{"bufferView":7,"componentType":5126,"count":1173,"max":[1.907414436340332,1.0030621886253357],"min":[0.004923880100250244,0.0014259815216064453],"type":"VEC2"}],"asset":{"copyright":null,"generator":"Verge3D for Maya","version":"2.0"},"bufferViews":[{"buffer":0,"byteLength":4560,"byteOffset":0,"target":34963},{"buffer":0,"byteLength":5268,"byteOffset":4560,"target":34962},{"buffer":0,"byteLength":5268,"byteOffset":9828,"target":34962},{"buffer":0,"byteLength":3512,"byteOffset":15096,"target":34962},{"buffer":0,"byteLength":12408,"byteOffset":18608,"target":34963},{"buffer":0,"byteLength":14076,"byteOffset":31016,"target":34962},{"buffer":0,"byteLength":14076,"byteOffset":45092,"target":34962},{"buffer":0,"byteLength":9384,"byteOffset":59168,"target":34962}],"buffers":[{"byteLength":68552,"uri":"lataspeedPBR.bin"}],"cameras":[{"extensions":{"S8S_v3d_camera":{"controls":"ORBIT","enablePan":true,"moveSpeed":1.0,"orbitMaxDistance":1000.0,"orbitMaxPolarAngle":3.141592653589793,"orbitMaxZoom":100.0,"orbitMinDistance":0.0,"orbitMinPolarAngle":0.0,"orbitMinZoom":0.009999999776482582,"orbitTarget":[-1.5263711207907011,1.0274587943904412,-0.1746407705665174],"rotateSpeed":1.0,"viewportFitInitialAspect":1.5,"viewportFitType":"HORIZONTAL"}},"name":"persp1Shape","perspective":{"aspectRatio":1.5,"yfov":0.6605947096585074,"zfar":10000.0,"znear":0.1},"type":"perspective"}],"extensions":{"S8S_v3d_lights":{"lights":[]}},"extensionsUsed":["S8S_v3d_texture","S8S_v3d_materials","S8S_v3d_lights","S8S_v3d_camera","S8S_v3d_mesh","S8S_v3d_node","S8S_v3d_scene"],"images":[{"mimeType":"image/jpeg","uri":"SUGAR FREE gota NEGRO.jpg"},{"mimeType":"image/vnd.radiance","uri":"environment.hdr"}],"materials":[{"extensions":{"S8S_v3d_materials":{"gtaoVisible":true,"nodeGraph":{"edges":[{"fromNode":1,"fromOutput":0,"toInput":0,"toNode":0}],"nodes":[{"inputs":[[0.0,0.0,0.0,1],[0,0,0,0],[0,0,0]],"is_active_output":true,"name":"surfaceShader1SG","outputs":[],"type":"SHADING_ENGINE_MY"},{"inputs":[[0.0,0.0,0.0],[0.0,0.0,0.0],[1.0,1.0,1.0],[0.0,0.0,0.0]],"name":"environment","outputs":[[0.0,0.0,0.0],[0.0,0.0,0.0],[1.0,1.0,1.0],[0.0,0.0,0.0]],"type":"SURFACE_SHADER_MY"}]},"profile":"maya"}},"name":"environment"},{"emissiveFactor":[0.0,0.0,0.0],"name":"StingrayPBS1","pbrMetallicRoughness":{"baseColorTexture":{"index":0},"metallicFactor":0.5262341499328613,"roughnessFactor":0.15910173952579498}},{"extensions":{"S8S_v3d_materials":{"nodeGraph":{"edges":[{"fromNode":1,"fromOutput":1,"toInput":0,"toNode":0},{"fromNode":2,"fromOutput":0,"toInput":0,"toNode":1}],"nodes":[{"inputs":[[0.0,0.0,0.0],1.0],"is_active_output":true,"name":"aiSkyDomeLightShape1","outputs":[],"type":"SKYDOME_LIGHT_AR"},{"fileHasAlpha":false,"inputs":[[0.0,0.0]],"name":"file2","outputs":[1.0,[0.0,0.0,0.0],[1024.0,512.0],[0.0,0.0,0.0]],"texture":1,"type":"FILE_MY"},{"inputs":[[0.0,0.0],[1.0,1.0],0.0],"name":"place2dTexture2","outputs":[[0.0,0.0]],"type":"PLACE_2D_TEXTURE_MY","uvIndex":0}]},"profile":"maya"}},"name":"Verge3D_Environment"}],"meshes":[{"extensions":{"S8S_v3d_mesh":{}},"name":"pSphereShape1","primitives":[{"attributes":{"NORMAL":2,"POSITION":1,"TEXCOORD_0":3},"indices":0,"material":0,"mode":4}]},{"extensions":{"S8S_v3d_mesh":{}},"name":"pasted__Mesh27Shape","primitives":[{"attributes":{"NORMAL":6,"POSITION":5,"TEXCOORD_0":7},"indices":4,"material":1,"mode":4}]}],"nodes":[{"camera":0,"extensions":{"S8S_v3d_node":{"hidden":false,"hidpiCompositing":false}},"name":"persp1","rotation":[-0.06285796880811464,0.8742363623892135,0.1177225145262751,0.4667987446506306],"scale":[1.0000000000000002,0.9999999999999999,1.0000000000000002],"translation":[4.607536528514034,3.052119095886299,-4.280934037596625]},{"extensions":{"S8S_v3d_node":{"groupNames":["defaultLightSet"],"hidden":false,"hidpiCompositing":false}},"name":"aiSkyDomeLight1","rotation":[0.0,0.0,0.0,1.0],"scale":[1.0,1.0,1.0],"translation":[0.0,0.0,0.0]},{"extensions":{"S8S_v3d_node":{"frustumCulling":true,"hidden":false,"hidpiCompositing":false,"renderOrder":0,"useCastShadows":true,"useShadows":true}},"mesh":0,"name":"pSphere1","rotation":[0.0,0.0,0.0,1.0],"scale":[12.32386542178364,12.32386542178364,12.32386542178364],"translation":[0.0,0.0,0.0]},{"extensions":{"S8S_v3d_node":{"frustumCulling":true,"hidden":false,"hidpiCompositing":false,"renderOrder":0,"useCastShadows":true,"useShadows":true}},"mesh":1,"name":"pasted__Mesh27","rotation":[0.0,0.0,0.0,1.0],"scale":[1.0,1.0,1.0],"translation":[-1.5263710446925105,-0.38245421901304466,-0.17464077056888305]}],"samplers":[{}],"scene":0,"scenes":[{"extensions":{"S8S_v3d_scene":{"aaMethod":"AUTO","iblEnvironmentMode":"PMREM","physicallyCorrectLights":true,"pmremMaxTileSize":256,"postprocessing":[{"bentNormals":false,"bounceApprox":false,"distance":0.10000000149011612,"factor":1.0,"precision":0.25,"type":"gtao"}],"shadowMap":{"esmDistanceScale":2.5,"renderReverseSided":false,"renderSingleSided":true,"type":"PCFPOISSON"},"unitsScaleFactor":1.0,"useHDR":false,"useOIT":false,"worldMaterial":2}},"extras":{"animFrameRate":30.0,"coordSystem":"Y_UP_RIGHT"},"name":"Scene","nodes":[0,1,2,3]}],"textures":[{"extensions":{"S8S_v3d_texture":{"colorSpace":"srgb"}},"name":"file6","sampler":0,"source":0},{"extensions":{"S8S_v3d_texture":{"colorSpace":"linear","source":1}},"name":"file2","sampler":0}]}