{"accessors":[{"bufferView":0,"componentType":5123,"count":6204,"max":[1172],"min":[0],"type":"SCALAR"},{"bufferView":1,"componentType":5126,"count":1173,"max":[0.883692741394043,3.4449102878570557,0.8836928009986877],"min":[-0.8836928009986877,-0.625083863735199,-0.8836928009986877],"type":"VEC3"},{"bufferView":2,"componentType":5126,"count":1173,"max":[1.0,1.0,1.0],"min":[-1.0,-1.0,-1.0],"type":"VEC3"},{"bufferView":3,"componentType":5126,"count":1173,"max":[1.907414436340332,1.0030621886253357],"min":[0.004923880100250244,0.0014259815216064453],"type":"VEC2"}],"asset":{"copyright":null,"generator":"Verge3D for Maya","version":"2.0"},"bufferViews":[{"buffer":0,"byteLength":12408,"byteOffset":0,"target":34963},{"buffer":0,"byteLength":14076,"byteOffset":12408,"target":34962},{"buffer":0,"byteLength":14076,"byteOffset":26484,"target":34962},{"buffer":0,"byteLength":9384,"byteOffset":40560,"target":34962}],"buffers":[{"byteLength":49944,"uri":"lataSpeed.bin"}],"cameras":[{"extensions":{"S8S_v3d_camera":{"controls":"ORBIT","enablePan":true,"moveSpeed":1.0,"orbitMaxDistance":1000.0,"orbitMaxPolarAngle":3.141592653589793,"orbitMaxZoom":100.0,"orbitMinDistance":0.0,"orbitMinPolarAngle":0.0,"orbitMinZoom":0.009999999776482582,"orbitTarget":[-1.5263710744948327,1.0274589930478841,-0.1746407705688835],"rotateSpeed":1.0,"viewportFitInitialAspect":1.5,"viewportFitType":"HORIZONTAL"}},"name":"persp1Shape","perspective":{"aspectRatio":1.5,"yfov":0.6605947096585074,"zfar":10000.0,"znear":0.1},"type":"perspective"}],"extensions":{"S8S_v3d_lights":{"lights":[{"color":[1,1,1],"intensity":2.5,"name":"__DEFAULT__","profile":"maya","type":"directional"}]}},"extensionsUsed":["S8S_v3d_texture","S8S_v3d_materials","S8S_v3d_lights","S8S_v3d_camera","S8S_v3d_mesh","S8S_v3d_node","S8S_v3d_scene"],"images":[{"mimeType":"image/jpeg","uri":"SUGAR FREE gota NEGRO.jpg"}],"materials":[{"emissiveFactor":[0.0,0.0,0.0],"name":"StingrayPBS1","pbrMetallicRoughness":{"baseColorTexture":{"index":0},"metallicFactor":0.5262341499328613,"roughnessFactor":0.15910173952579498}},{"extensions":{"S8S_v3d_materials":{"nodeGraph":{"edges":[{"fromNode":0,"fromOutput":0,"toInput":0,"toNode":1}],"nodes":[{"inputs":[[0.10653923276464054,0.10653923276464054,0.10653923276464054],[0,0,0],[0,0,0],[0,0,0],[0,0,0],[0,0,0]],"name":"aiRaySwitchColor","outputs":[[0,0,0],0],"type":"RAY_SWITCH_AR"},{"inputs":[[0,0,0],1],"is_active_output":true,"name":"aiSkyDomeLightShapeColor","outputs":[],"type":"SKYDOME_LIGHT_AR"}]},"profile":"maya"}},"name":"Verge3D_Environment"}],"meshes":[{"extensions":{"S8S_v3d_mesh":{}},"name":"pasted__Mesh27Shape","primitives":[{"attributes":{"NORMAL":2,"POSITION":1,"TEXCOORD_0":3},"indices":0,"material":0,"mode":4}]}],"nodes":[{"camera":0,"children":[2],"extensions":{"S8S_v3d_node":{"hidden":false,"hidpiCompositing":false}},"name":"persp1","rotation":[-0.06285796880811464,0.8742363623892135,0.1177225145262751,0.4667987446506306],"scale":[1.0000000000000002,0.9999999999999999,1.0000000000000002],"translation":[5.780850529218684,3.439402951308911,-5.066399268991471]},{"extensions":{"S8S_v3d_node":{"frustumCulling":true,"hidden":false,"hidpiCompositing":false,"renderOrder":0,"useCastShadows":true,"useShadows":true}},"mesh":0,"name":"pasted__Mesh27","rotation":[0.0,0.0,0.0,1.0],"scale":[1.0,1.0,1.0],"translation":[-1.5263710446925105,-0.38245421901304466,-0.17464077056888305]},{"extensions":{"S8S_v3d_lights":{"light":0}},"name":"__DEFAULT_LIGHT__","rotation":[-0.13052619222005157,-0.0,-0.0,0.9914448613738104],"translation":[5.780850529218684,3.439402951308911,-5.066399268991471]}],"samplers":[{}],"scene":0,"scenes":[{"extensions":{"S8S_v3d_scene":{"aaMethod":"AUTO","iblEnvironmentMode":"PMREM","physicallyCorrectLights":true,"postprocessing":[{"bentNormals":false,"bounceApprox":false,"distance":0.10000000149011612,"factor":1.0,"precision":0.25,"type":"gtao"}],"shadowMap":{"esmDistanceScale":2.5,"renderReverseSided":false,"renderSingleSided":true,"type":"PCFPOISSON"},"unitsScaleFactor":1.0,"useHDR":false,"useOIT":false,"worldMaterial":1}},"extras":{"animFrameRate":30.0,"coordSystem":"Y_UP_RIGHT"},"name":"Scene","nodes":[0,1]}],"textures":[{"extensions":{"S8S_v3d_texture":{"colorSpace":"srgb"}},"name":"file6","sampler":0,"source":0}]}